<svg xmlns="http://www.w3.org/2000/svg" xmlns:xlink="http://www.w3.org/1999/xlink" width="960" height="839.85"><rect width="960" height="839.85" rx="5" ry="5" class="a"/><svg y="0%" x="0%"><circle cx="20" cy="20" r="6" fill="#ff5f58"/><circle cx="40" cy="20" r="6" fill="#ffbd2e"/><circle cx="60" cy="20" r="6" fill="#18c132"/></svg><svg height="759.85" viewBox="0 0 90 75.985" width="900" x="25" xmlns="http://www.w3.org/2000/svg" xmlns:xlink="http://www.w3.org/1999/xlink" y="60"><style>@keyframes m{0%{transform:translateX(0)}.1%{transform:translateX(-90px)}5.2%{transform:translateX(-180px)}5.6%{transform:translateX(-270px)}6.1%{transform:translateX(-360px)}6.5%{transform:translateX(-450px)}6.9%{transform:translateX(-540px)}7.3%{transform:translateX(-630px)}7.7%{transform:translateX(-720px)}8.1%{transform:translateX(-810px)}8.6%{transform:translateX(-900px)}9%{transform:translateX(-990px)}9.4%{transform:translateX(-1080px)}9.8%{transform:translateX(-1170px)}10.2%{transform:translateX(-1260px)}10.7%{transform:translateX(-1350px)}11.1%{transform:translateX(-1440px)}11.5%{transform:translateX(-1530px)}12%{transform:translateX(-1620px)}15.5%{transform:translateX(-1710px)}17.6%{transform:translateX(-1800px)}28.3%{transform:translateX(-1980px)}28.7%{transform:translateX(-2070px)}29.1%{transform:translateX(-2160px)}29.5%{transform:translateX(-2250px)}30%{transform:translateX(-2340px)}30.4%{transform:translateX(-2430px)}30.8%{transform:translateX(-2520px)}31.2%{transform:translateX(-2610px)}31.6%{transform:translateX(-2700px)}32.1%{transform:translateX(-2790px)}32.5%{transform:translateX(-2880px)}32.9%{transform:translateX(-2970px)}33.3%{transform:translateX(-3060px)}33.8%{transform:translateX(-3150px)}34.2%{transform:translateX(-3240px)}34.6%{transform:translateX(-3330px)}38.1%{transform:translateX(-3510px)}58.6%{transform:translateX(-3600px)}59%{transform:translateX(-3690px)}59.4%{transform:translateX(-3780px)}59.9%{transform:translateX(-3870px)}60.3%{transform:translateX(-3960px)}60.7%{transform:translateX(-4050px)}61.1%{transform:translateX(-4140px)}61.6%{transform:translateX(-4230px)}62%{transform:translateX(-4320px)}62.4%{transform:translateX(-4410px)}62.8%{transform:translateX(-4500px)}66.3%{transform:translateX(-4590px)}68.8%{transform:translateX(-4950px)}to{transform:translateX(-5040px)}}.a{fill:#282d35}.f,.g{fill:#b9c0cb;white-space:pre}.g{font-weight:700}.h,.i,.j,.k{fill:#66c2cd;white-space:pre}.i,.j,.k{fill:#a8cc8c}.j,.k{fill:#e88388}.k{fill:#66c2cd;font-weight:700}</style><g font-family="Monaco,Consolas,Menlo,'Bitstream Vera Sans Mono','Powerline Symbols',monospace" font-size="1.67"><defs><symbol id="1"><text y="1.67" class="f">$</text><text x="2.004" y="1.67" class="f">p</text></symbol><symbol id="2"><text y="1.67" class="f">$</text><text x="2.004" y="1.67" class="f">pr</text></symbol><symbol id="3"><text y="1.67" class="f">$</text><text x="2.004" y="1.67" class="f">pro</text></symbol><symbol id="4"><text y="1.67" class="f">$</text><text x="2.004" y="1.67" class="f">prov</text></symbol><symbol id="5"><text y="1.67" class="f">$</text><text x="2.004" y="1.67" class="f">prove</text></symbol><symbol id="6"><text y="1.67" class="f">$</text><text x="2.004" y="1.67" class="f">prover</text></symbol><symbol id="7"><text y="1.67" class="f">$</text><text x="2.004" y="1.67" class="f">provero</text></symbol><symbol id="8"><text y="1.67" class="f">$</text><text x="2.004" y="1.67" class="f">provero</text><text x="10.02" y="1.67" class="f">--version</text></symbol><symbol id="9"><text y="1.67" class="f">provero</text><text x="8.016" y="1.67" class="f">0.2.0</text></symbol><symbol id="10"><text y="1.67" class="f">$</text><text x="2.004" y="1.67" class="f">cat</text></symbol><symbol id="11"><text y="1.67" class="f">$</text><text x="2.004" y="1.67" class="f">cat</text><text x="6.012" y="1.67" class="f">provero.yaml</text></symbol><symbol id="12"><text y="1.67" class="f">source:</text></symbol><symbol id="13"><text x="2.004" y="1.67" class="f">type:</text><text x="8.016" y="1.67" class="f">duckdb</text></symbol><symbol id="14"><text x="2.004" y="1.67" class="f">connection:</text><text x="14.028" y="1.67" class="f">orders.duckdb</text></symbol><symbol id="15"><text x="2.004" y="1.67" class="f">table:</text><text x="9.018" y="1.67" class="f">orders</text></symbol><symbol id="16"><text y="1.67" class="f">checks:</text></symbol><symbol id="17"><text x="2.004" y="1.67" class="f">-</text><text x="4.008" y="1.67" class="f">not_null:</text><text x="14.028" y="1.67" class="f">[order_id,</text><text x="25.05" y="1.67" class="f">customer_id,</text><text x="38.076" y="1.67" class="f">amount]</text></symbol><symbol id="18"><text x="2.004" y="1.67" class="f">-</text><text x="4.008" y="1.67" class="f">unique:</text><text x="12.024" y="1.67" class="f">order_id</text></symbol><symbol id="19"><text x="2.004" y="1.67" class="f">-</text><text x="4.008" y="1.67" class="f">accepted_values:</text></symbol><symbol id="20"><text x="6.012" y="1.67" class="f">column:</text><text x="14.028" y="1.67" class="f">status</text></symbol><symbol id="21"><text x="6.012" y="1.67" class="f">values:</text><text x="14.028" y="1.67" class="f">[pending,</text><text x="24.048" y="1.67" class="f">shipped,</text><text x="33.066" y="1.67" class="f">delivered,</text><text x="44.088" y="1.67" class="f">cancelled]</text></symbol><symbol id="22"><text x="2.004" y="1.67" class="f">-</text><text x="4.008" y="1.67" class="f">range:</text></symbol><symbol id="23"><text x="6.012" y="1.67" class="f">column:</text><text x="14.028" y="1.67" class="f">amount</text></symbol><symbol id="24"><text x="6.012" y="1.67" class="f">min:</text><text x="11.022" y="1.67" class="f">0</text></symbol><symbol id="25"><text x="6.012" y="1.67" class="f">max:</text><text x="11.022" y="1.67" class="f">10000</text></symbol><symbol id="26"><text x="2.004" y="1.67" class="f">-</text><text x="4.008" y="1.67" class="f">row_count:</text></symbol><symbol id="27"><text x="6.012" y="1.67" class="f">min:</text><text x="11.022" y="1.67" class="f">1</text></symbol><symbol id="28"><text y="1.67" class="f">$</text><text x="2.004" y="1.67" class="f">provero</text><text x="10.02" y="1.67" class="f">run</text></symbol><symbol id="29"><text x="38.076" y="1.67" class="f">Suite:</text><text x="45.09" y="1.67" class="f">provero</text></symbol><symbol id="30"><text y="1.67" class="f">┏━━━━━━━━━━━━━━━━━┳━━━━━━━━━━━━━┳━━━━━━━━┳━━━━━━━━━━━━━━━━━━━━━━━┳━━━━━━━━━━━━━━━━━━━━━━━┓</text></symbol><symbol id="31"><text y="1.67" class="f">┃</text><text x="2.004" y="1.67" class="g">Check</text><text x="18.036" y="1.67" class="f">┃</text><text x="20.04" y="1.67" class="g">Column</text><text x="32.064" y="1.67" class="f">┃</text><text x="34.068" y="1.67" class="g">Status</text><text x="41.082" y="1.67" class="f">┃</text><text x="43.086" y="1.67" class="g">Observed</text><text x="65.13" y="1.67" class="f">┃</text><text x="67.134" y="1.67" class="g">Expected</text><text x="89.178" y="1.67" class="f">┃</text></symbol><symbol id="32"><text y="1.67" class="f">┡━━━━━━━━━━━━━━━━━╇━━━━━━━━━━━━━╇━━━━━━━━╇━━━━━━━━━━━━━━━━━━━━━━━╇━━━━━━━━━━━━━━━━━━━━━━━┩</text></symbol><symbol id="33"><text y="1.67" class="f">│</text><text x="2.004" y="1.67" class="h">not_null</text><text x="18.036" y="1.67" class="f">│</text><text x="20.04" y="1.67" class="f">order_id</text><text x="32.064" y="1.67" class="f">│</text><text x="34.068" y="1.67" class="i">✓</text><text x="36.072" y="1.67" class="i">PASS</text><text x="41.082" y="1.67" class="f">│</text><text x="43.086" y="1.67" class="f">0</text><text x="45.09" y="1.67" class="f">nulls</text><text x="65.13" y="1.67" class="f">│</text><text x="67.134" y="1.67" class="f">0</text><text x="69.138" y="1.67" class="f">nulls</text><text x="89.178" y="1.67" class="f">│</text></symbol><symbol id="34"><text y="1.67" class="f">│</text><text x="2.004" y="1.67" class="h">not_null</text><text x="18.036" y="1.67" class="f">│</text><text x="20.04" y="1.67" class="f">customer_id</text><text x="32.064" y="1.67" class="f">│</text><text x="34.068" y="1.67" class="j">✗</text><text x="36.072" y="1.67" class="j">FAIL</text><text x="41.082" y="1.67" class="f">│</text><text x="43.086" y="1.67" class="f">1</text><text x="45.09" y="1.67" class="f">nulls</text><text x="65.13" y="1.67" class="f">│</text><text x="67.134" y="1.67" class="f">0</text><text x="69.138" y="1.67" class="f">nulls</text><text x="89.178" y="1.67" class="f">│</text></symbol><symbol id="35"><text y="1.67" class="f">│</text><text x="2.004" y="1.67" class="h">not_null</text><text x="18.036" y="1.67" class="f">│</text><text x="20.04" y="1.67" class="f">amount</text><text x="32.064" y="1.67" class="f">│</text><text x="34.068" y="1.67" class="i">✓</text><text x="36.072" y="1.67" class="i">PASS</text><text x="41.082" y="1.67" class="f">│</text><text x="43.086" y="1.67" class="f">0</text><text x="45.09" y="1.67" class="f">nulls</text><text x="65.13" y="1.67" class="f">│</text><text x="67.134" y="1.67" class="f">0</text><text x="69.138" y="1.67" class="f">nulls</text><text x="89.178" y="1.67" class="f">│</text></symbol><symbol id="36"><text y="1.67" class="f">│</text><text x="2.004" y="1.67" class="h">unique</text><text x="18.036" y="1.67" class="f">│</text><text x="20.04" y="1.67" class="f">order_id</text><text x="32.064" y="1.67" class="f">│</text><text x="34.068" y="1.67" class="i">✓</text><text x="36.072" y="1.67" class="i">PASS</text><text x="41.082" y="1.67" class="f">│</text><text x="43.086" y="1.67" class="f">0</text><text x="45.09" y="1.67" class="f">duplicates</text><text x="65.13" y="1.67" class="f">│</text><text x="67.134" y="1.67" class="f">0</text><text x="69.138" y="1.67" class="f">duplicates</text><text x="89.178" y="1.67" class="f">│</text></symbol><symbol id="37"><text y="1.67" class="f">│</text><text x="2.004" y="1.67" class="h">accepted_values</text><text x="18.036" y="1.67" class="f">│</text><text x="20.04" y="1.67" class="f">status</text><text x="32.064" y="1.67" class="f">│</text><text x="34.068" y="1.67" class="j">✗</text><text x="36.072" y="1.67" class="j">FAIL</text><text x="41.082" y="1.67" class="f">│</text><text x="43.086" y="1.67" class="f">1</text><text x="45.09" y="1.67" class="f">invalid</text><text x="53.106" y="1.67" class="f">values</text><text x="65.13" y="1.67" class="f">│</text><text x="67.134" y="1.67" class="f">only</text><text x="72.144" y="1.67" class="f">[&apos;pending&apos;,</text><text x="89.178" y="1.67" class="f">│</text></symbol><symbol id="38"><text y="1.67" class="f">│</text><text x="18.036" y="1.67" class="f">│</text><text x="32.064" y="1.67" class="f">│</text><text x="41.082" y="1.67" class="f">│</text><text x="65.13" y="1.67" class="f">│</text><text x="67.134" y="1.67" class="f">&apos;shipped&apos;,</text><text x="89.178" y="1.67" class="f">│</text></symbol><symbol id="39"><text y="1.67" class="f">│</text><text x="18.036" y="1.67" class="f">│</text><text x="32.064" y="1.67" class="f">│</text><text x="41.082" y="1.67" class="f">│</text><text x="65.13" y="1.67" class="f">│</text><text x="67.134" y="1.67" class="f">&apos;delivered&apos;,</text><text x="89.178" y="1.67" class="f">│</text></symbol><symbol id="40"><text y="1.67" class="f">│</text><text x="18.036" y="1.67" class="f">│</text><text x="32.064" y="1.67" class="f">│</text><text x="41.082" y="1.67" class="f">│</text><text x="65.13" y="1.67" class="f">│</text><text x="67.134" y="1.67" class="f">&apos;cancelled&apos;]</text><text x="89.178" y="1.67" class="f">│</text></symbol><symbol id="41"><text y="1.67" class="f">│</text><text x="2.004" y="1.67" class="h">range</text><text x="18.036" y="1.67" class="f">│</text><text x="20.04" y="1.67" class="f">amount</text><text x="32.064" y="1.67" class="f">│</text><text x="34.068" y="1.67" class="j">✗</text><text x="36.072" y="1.67" class="j">FAIL</text><text x="41.082" y="1.67" class="f">│</text><text x="43.086" y="1.67" class="f">min=-25.00,</text><text x="65.13" y="1.67" class="f">│</text><text x="67.134" y="1.67" class="f">min=0,</text><text x="74.148" y="1.67" class="f">max=10000</text><text x="89.178" y="1.67" class="f">│</text></symbol><symbol id="42"><text y="1.67" class="f">│</text><text x="18.036" y="1.67" class="f">│</text><text x="32.064" y="1.67" class="f">│</text><text x="41.082" y="1.67" class="f">│</text><text x="43.086" y="1.67" class="f">max=1599.00</text><text x="65.13" y="1.67" class="f">│</text><text x="89.178" y="1.67" class="f">│</text></symbol><symbol id="43"><text y="1.67" class="f">│</text><text x="2.004" y="1.67" class="h">row_count</text><text x="18.036" y="1.67" class="f">│</text><text x="20.04" y="1.67" class="f">-</text><text x="32.064" y="1.67" class="f">│</text><text x="34.068" y="1.67" class="i">✓</text><text x="36.072" y="1.67" class="i">PASS</text><text x="41.082" y="1.67" class="f">│</text><text x="43.086" y="1.67" class="f">7</text><text x="65.13" y="1.67" class="f">│</text><text x="67.134" y="1.67" class="f">&gt;=</text><text x="70.14" y="1.67" class="f">1</text><text x="89.178" y="1.67" class="f">│</text></symbol><symbol id="44"><text y="1.67" class="f">└─────────────────┴─────────────┴────────┴───────────────────────┴───────────────────────┘</text></symbol><symbol id="45"><text y="1.67" class="f">Score:</text><text x="7.014" y="1.67" class="k">57.1</text><text x="11.022" y="1.67" class="f">/</text><text x="12.024" y="1.67" class="k">100</text><text x="16.032" y="1.67" class="f">|</text><text x="18.036" y="1.67" class="k">4</text><text x="20.04" y="1.67" class="f">passed,</text><text x="28.056" y="1.67" class="k">3</text><text x="30.06" y="1.67" class="f">failed,</text><text x="38.076" y="1.67" class="k">0</text><text x="40.08" y="1.67" class="f">warned</text><text x="47.094" y="1.67" class="f">|</text><text x="49.098" y="1.67" class="f">13ms</text></symbol><symbol id="46"><text y="1.67" class="j">FAILED:</text><text x="8.016" y="1.67" class="f">not_null:customer_id</text></symbol><symbol id="47"><text x="2.004" y="1.67" class="f">Query:</text><text x="9.018" y="1.67" class="f">SELECT</text><text x="16.032" y="1.67" class="f">*</text><text x="18.036" y="1.67" class="f">FROM</text><text x="23.046" y="1.67" class="i">&quot;orders&quot;</text><text x="32.064" y="1.67" class="f">WHERE</text><text x="38.076" y="1.67" class="i">&quot;customer_id&quot;</text><text x="52.104" y="1.67" class="f">IS</text><text x="55.11" y="1.67" class="f">NULL</text></symbol><symbol id="a"><path fill="transparent" d="M0 0h90v36H0z"/></symbol></defs><path class="a" d="M0 0h90v75.985H0z"/><g style="animation-duration:9.791611s;animation-iteration-count:infinite;animation-name:m;animation-timing-function:steps(1,end)"><svg width="5130"><svg><use xlink:href="#a"/></svg><svg x="90"><use xlink:href="#a"/></svg><svg x="180"><use xlink:href="#a"/><use xlink:href="#1"/></svg><svg x="270"><use xlink:href="#a"/><use xlink:href="#2"/></svg><svg x="360"><use xlink:href="#a"/><use xlink:href="#3"/></svg><svg x="450"><use xlink:href="#a"/><use xlink:href="#4"/></svg><svg x="540"><use xlink:href="#a"/><use xlink:href="#5"/></svg><svg x="630"><use xlink:href="#a"/><use xlink:href="#6"/></svg><svg x="720"><use xlink:href="#a"/><use xlink:href="#7"/></svg><svg x="810"><use xlink:href="#a"/><use xlink:href="#7"/></svg><svg x="900"><use xlink:href="#a"/><text y="1.67" class="f">$</text><text x="2.004" y="1.67" class="f">provero</text><text x="10.02" y="1.67" class="f">-</text></svg><svg x="990"><use xlink:href="#a"/><text y="1.67" class="f">$</text><text x="2.004" y="1.67" class="f">provero</text><text x="10.02" y="1.67" class="f">--</text></svg><svg x="1080"><use xlink:href="#a"/><text y="1.67" class="f">$</text><text x="2.004" y="1.67" class="f">provero</text><text x="10.02" y="1.67" class="f">--v</text></svg><svg x="1170"><use xlink:href="#a"/><text y="1.67" class="f">$</text><text x="2.004" y="1.67" class="f">provero</text><text x="10.02" y="1.67" class="f">--ve</text></svg><svg x="1260"><use xlink:href="#a"/><text y="1.67" class="f">$</text><text x="2.004" y="1.67" class="f">provero</text><text x="10.02" y="1.67" class="f">--ver</text></svg><svg x="1350"><use xlink:href="#a"/><text y="1.67" class="f">$</text><text x="2.004" y="1.67" class="f">provero</text><text x="10.02" y="1.67" class="f">--vers</text></svg><svg x="1440"><use xlink:href="#a"/><text y="1.67" class="f">$</text><text x="2.004" y="1.67" class="f">provero</text><text x="10.02" y="1.67" class="f">--versi</text></svg><svg x="1530"><use xlink:href="#a"/><text y="1.67" class="f">$</text><text x="2.004" y="1.67" class="f">provero</text><text x="10.02" y="1.67" class="f">--versio</text></svg><svg x="1620"><use xlink:href="#a"/><use xlink:href="#8"/></svg><svg x="1710"><use xlink:href="#a"/><use xlink:href="#8"/></svg><svg x="1800"><use xlink:href="#a"/><use xlink:href="#8"/><use xlink:href="#9" y="2.171"/></svg><svg x="1890"><use xlink:href="#a"/><use xlink:href="#8"/><use xlink:href="#9" y="2.171"/><text y="8.183" class="f">$</text></svg><svg x="1980"><use xlink:href="#a"/><use xlink:href="#8"/><use xlink:href="#9" y="2.171"/><text y="8.183" class="f">$</text><text x="2.004" y="8.183" class="f">c</text></svg><svg x="2070"><use xlink:href="#a"/><use xlink:href="#8"/><use xlink:href="#9" y="2.171"/><text y="8.183" class="f">$</text><text x="2.004" y="8.183" class="f">ca</text></svg><svg x="2160"><use xlink:href="#a"/><use xlink:href="#8"/><use xlink:href="#9" y="2.171"/><use xlink:href="#10" y="6.513"/></svg><svg x="2250"><use xlink:href="#a"/><use xlink:href="#8"/><use xlink:href="#9" y="2.171"/><use xlink:href="#10" y="6.513"/></svg><svg x="2340"><use xlink:href="#a"/><use xlink:href="#8"/><use xlink:href="#9" y="2.171"/><text y="8.183" class="f">$</text><text x="2.004" y="8.183" class="f">cat</text><text x="6.012" y="8.183" class="f">p</text></svg><svg x="2430"><use xlink:href="#a"/><use xlink:href="#8"/><use xlink:href="#9" y="2.171"/><text y="8.183" class="f">$</text><text x="2.004" y="8.183" class="f">cat</text><text x="6.012" y="8.183" class="f">pr</text></svg><svg x="2520"><use xlink:href="#a"/><use xlink:href="#8"/><use xlink:href="#9" y="2.171"/><text y="8.183" class="f">$</text><text x="2.004" y="8.183" class="f">cat</text><text x="6.012" y="8.183" class="f">pro</text></svg><svg x="2610"><use xlink:href="#a"/><use xlink:href="#8"/><use xlink:href="#9" y="2.171"/><text y="8.183" class="f">$</text><text x="2.004" y="8.183" class="f">cat</text><text x="6.012" y="8.183" class="f">prov</text></svg><svg x="2700"><use xlink:href="#a"/><use xlink:href="#8"/><use xlink:href="#9" y="2.171"/><text y="8.183" class="f">$</text><text x="2.004" y="8.183" class="f">cat</text><text x="6.012" y="8.183" class="f">prove</text></svg><svg x="2790"><use xlink:href="#a"/><use xlink:href="#8"/><use xlink:href="#9" y="2.171"/><text y="8.183" class="f">$</text><text x="2.004" y="8.183" class="f">cat</text><text x="6.012" y="8.183" class="f">prover</text></svg><svg x="2880"><use xlink:href="#a"/><use xlink:href="#8"/><use xlink:href="#9" y="2.171"/><text y="8.183" class="f">$</text><text x="2.004" y="8.183" class="f">cat</text><text x="6.012" y="8.183" class="f">provero</text></svg><svg x="2970"><use xlink:href="#a"/><use xlink:href="#8"/><use xlink:href="#9" y="2.171"/><text y="8.183" class="f">$</text><text x="2.004" y="8.183" class="f">cat</text><text x="6.012" y="8.183" class="f">provero.</text></svg><svg x="3060"><use xlink:href="#a"/><use xlink:href="#8"/><use xlink:href="#9" y="2.171"/><text y="8.183" class="f">$</text><text x="2.004" y="8.183" class="f">cat</text><text x="6.012" y="8.183" class="f">provero.y</text></svg><svg x="3150"><use xlink:href="#a"/><use xlink:href="#8"/><use xlink:href="#9" y="2.171"/><text y="8.183" class="f">$</text><text x="2.004" y="8.183" class="f">cat</text><text x="6.012" y="8.183" class="f">provero.ya</text></svg><svg x="3240"><use xlink:href="#a"/><use xlink:href="#8"/><use xlink:href="#9" y="2.171"/><text y="8.183" class="f">$</text><text x="2.004" y="8.183" class="f">cat</text><text x="6.012" y="8.183" class="f">provero.yam</text></svg><svg x="3330"><use xlink:href="#a"/><use xlink:href="#8"/><use xlink:href="#9" y="2.171"/><use xlink:href="#11" y="6.513"/></svg><svg x="3420"><use xlink:href="#a"/><use xlink:href="#8"/><use xlink:href="#9" y="2.171"/><use xlink:href="#11" y="6.513"/></svg><svg x="3510"><use xlink:href="#a"/><use xlink:href="#8"/><use xlink:href="#9" y="2.171"/><use xlink:href="#11" y="6.513"/><use xlink:href="#12" y="8.684"/><use xlink:href="#13" y="10.855"/><use xlink:href="#14" y="13.026"/><use xlink:href="#15" y="15.197"/><use xlink:href="#16" y="19.539"/><use xlink:href="#17" y="21.71"/><use xlink:href="#18" y="23.881"/><use xlink:href="#19" y="26.052"/><use xlink:href="#20" y="28.223"/><use xlink:href="#21" y="30.394"/><use xlink:href="#22" y="32.565"/><use xlink:href="#23" y="34.736"/><use xlink:href="#24" y="36.907"/><use xlink:href="#25" y="39.078"/><use xlink:href="#26" y="41.249"/><use xlink:href="#27" y="43.42"/></svg><svg x="3600"><use xlink:href="#a"/><use xlink:href="#8"/><use xlink:href="#9" y="2.171"/><use xlink:href="#11" y="6.513"/><use xlink:href="#12" y="8.684"/><use xlink:href="#13" y="10.855"/><use xlink:href="#14" y="13.026"/><use xlink:href="#15" y="15.197"/><use xlink:href="#16" y="19.539"/><use xlink:href="#17" y="21.71"/><use xlink:href="#18" y="23.881"/><use xlink:href="#19" y="26.052"/><use xlink:href="#20" y="28.223"/><use xlink:href="#21" y="30.394"/><use xlink:href="#22" y="32.565"/><use xlink:href="#23" y="34.736"/><use xlink:href="#24" y="36.907"/><use xlink:href="#25" y="39.078"/><use xlink:href="#26" y="41.249"/><use xlink:href="#27" y="43.42"/><use xlink:href="#1" y="47.762"/></svg><svg x="3690"><use xlink:href="#a"/><use xlink:href="#8"/><use xlink:href="#9" y="2.171"/><use xlink:href="#11" y="6.513"/><use xlink:href="#12" y="8.684"/><use xlink:href="#13" y="10.855"/><use xlink:href="#14" y="13.026"/><use xlink:href="#15" y="15.197"/><use xlink:href="#16" y="19.539"/><use xlink:href="#17" y="21.71"/><use xlink:href="#18" y="23.881"/><use xlink:href="#19" y="26.052"/><use xlink:href="#20" y="28.223"/><use xlink:href="#21" y="30.394"/><use xlink:href="#22" y="32.565"/><use xlink:href="#23" y="34.736"/><use xlink:href="#24" y="36.907"/><use xlink:href="#25" y="39.078"/><use xlink:href="#26" y="41.249"/><use xlink:href="#27" y="43.42"/><use xlink:href="#2" y="47.762"/></svg><svg x="3780"><use xlink:href="#a"/><use xlink:href="#8"/><use xlink:href="#9" y="2.171"/><use xlink:href="#11" y="6.513"/><use xlink:href="#12" y="8.684"/><use xlink:href="#13" y="10.855"/><use xlink:href="#14" y="13.026"/><use xlink:href="#15" y="15.197"/><use xlink:href="#16" y="19.539"/><use xlink:href="#17" y="21.71"/><use xlink:href="#18" y="23.881"/><use xlink:href="#19" y="26.052"/><use xlink:href="#20" y="28.223"/><use xlink:href="#21" y="30.394"/><use xlink:href="#22" y="32.565"/><use xlink:href="#23" y="34.736"/><use xlink:href="#24" y="36.907"/><use xlink:href="#25" y="39.078"/><use xlink:href="#26" y="41.249"/><use xlink:href="#27" y="43.42"/><use xlink:href="#3" y="47.762"/></svg><svg x="3870"><use xlink:href="#a"/><use xlink:href="#8"/><use xlink:href="#9" y="2.171"/><use xlink:href="#11" y="6.513"/><use xlink:href="#12" y="8.684"/><use xlink:href="#13" y="10.855"/><use xlink:href="#14" y="13.026"/><use xlink:href="#15" y="15.197"/><use xlink:href="#16" y="19.539"/><use xlink:href="#17" y="21.71"/><use xlink:href="#18" y="23.881"/><use xlink:href="#19" y="26.052"/><use xlink:href="#20" y="28.223"/><use xlink:href="#21" y="30.394"/><use xlink:href="#22" y="32.565"/><use xlink:href="#23" y="34.736"/><use xlink:href="#24" y="36.907"/><use xlink:href="#25" y="39.078"/><use xlink:href="#26" y="41.249"/><use xlink:href="#27" y="43.42"/><use xlink:href="#4" y="47.762"/></svg><svg x="3960"><use xlink:href="#a"/><use xlink:href="#8"/><use xlink:href="#9" y="2.171"/><use xlink:href="#11" y="6.513"/><use xlink:href="#12" y="8.684"/><use xlink:href="#13" y="10.855"/><use xlink:href="#14" y="13.026"/><use xlink:href="#15" y="15.197"/><use xlink:href="#16" y="19.539"/><use xlink:href="#17" y="21.71"/><use xlink:href="#18" y="23.881"/><use xlink:href="#19" y="26.052"/><use xlink:href="#20" y="28.223"/><use xlink:href="#21" y="30.394"/><use xlink:href="#22" y="32.565"/><use xlink:href="#23" y="34.736"/><use xlink:href="#24" y="36.907"/><use xlink:href="#25" y="39.078"/><use xlink:href="#26" y="41.249"/><use xlink:href="#27" y="43.42"/><use xlink:href="#5" y="47.762"/></svg><svg x="4050"><use xlink:href="#a"/><use xlink:href="#8"/><use xlink:href="#9" y="2.171"/><use xlink:href="#11" y="6.513"/><use xlink:href="#12" y="8.684"/><use xlink:href="#13" y="10.855"/><use xlink:href="#14" y="13.026"/><use xlink:href="#15" y="15.197"/><use xlink:href="#16" y="19.539"/><use xlink:href="#17" y="21.71"/><use xlink:href="#18" y="23.881"/><use xlink:href="#19" y="26.052"/><use xlink:href="#20" y="28.223"/><use xlink:href="#21" y="30.394"/><use xlink:href="#22" y="32.565"/><use xlink:href="#23" y="34.736"/><use xlink:href="#24" y="36.907"/><use xlink:href="#25" y="39.078"/><use xlink:href="#26" y="41.249"/><use xlink:href="#27" y="43.42"/><use xlink:href="#6" y="47.762"/></svg><svg x="4140"><use xlink:href="#a"/><use xlink:href="#8"/><use xlink:href="#9" y="2.171"/><use xlink:href="#11" y="6.513"/><use xlink:href="#12" y="8.684"/><use xlink:href="#13" y="10.855"/><use xlink:href="#14" y="13.026"/><use xlink:href="#15" y="15.197"/><use xlink:href="#16" y="19.539"/><use xlink:href="#17" y="21.71"/><use xlink:href="#18" y="23.881"/><use xlink:href="#19" y="26.052"/><use xlink:href="#20" y="28.223"/><use xlink:href="#21" y="30.394"/><use xlink:href="#22" y="32.565"/><use xlink:href="#23" y="34.736"/><use xlink:href="#24" y="36.907"/><use xlink:href="#25" y="39.078"/><use xlink:href="#26" y="41.249"/><use xlink:href="#27" y="43.42"/><use xlink:href="#7" y="47.762"/></svg><svg x="4230"><use xlink:href="#a"/><use xlink:href="#8"/><use xlink:href="#9" y="2.171"/><use xlink:href="#11" y="6.513"/><use xlink:href="#12" y="8.684"/><use xlink:href="#13" y="10.855"/><use xlink:href="#14" y="13.026"/><use xlink:href="#15" y="15.197"/><use xlink:href="#16" y="19.539"/><use xlink:href="#17" y="21.71"/><use xlink:href="#18" y="23.881"/><use xlink:href="#19" y="26.052"/><use xlink:href="#20" y="28.223"/><use xlink:href="#21" y="30.394"/><use xlink:href="#22" y="32.565"/><use xlink:href="#23" y="34.736"/><use xlink:href="#24" y="36.907"/><use xlink:href="#25" y="39.078"/><use xlink:href="#26" y="41.249"/><use xlink:href="#27" y="43.42"/><use xlink:href="#7" y="47.762"/></svg><svg x="4320"><use xlink:href="#a"/><use xlink:href="#8"/><use xlink:href="#9" y="2.171"/><use xlink:href="#11" y="6.513"/><use xlink:href="#12" y="8.684"/><use xlink:href="#13" y="10.855"/><use xlink:href="#14" y="13.026"/><use xlink:href="#15" y="15.197"/><use xlink:href="#16" y="19.539"/><use xlink:href="#17" y="21.71"/><use xlink:href="#18" y="23.881"/><use xlink:href="#19" y="26.052"/><use xlink:href="#20" y="28.223"/><use xlink:href="#21" y="30.394"/><use xlink:href="#22" y="32.565"/><use xlink:href="#23" y="34.736"/><use xlink:href="#24" y="36.907"/><use xlink:href="#25" y="39.078"/><use xlink:href="#26" y="41.249"/><use xlink:href="#27" y="43.42"/><text y="49.432" class="f">$</text><text x="2.004" y="49.432" class="f">provero</text><text x="10.02" y="49.432" class="f">r</text></svg><svg x="4410"><use xlink:href="#a"/><use xlink:href="#8"/><use xlink:href="#9" y="2.171"/><use xlink:href="#11" y="6.513"/><use xlink:href="#12" y="8.684"/><use xlink:href="#13" y="10.855"/><use xlink:href="#14" y="13.026"/><use xlink:href="#15" y="15.197"/><use xlink:href="#16" y="19.539"/><use xlink:href="#17" y="21.71"/><use xlink:href="#18" y="23.881"/><use xlink:href="#19" y="26.052"/><use xlink:href="#20" y="28.223"/><use xlink:href="#21" y="30.394"/><use xlink:href="#22" y="32.565"/><use xlink:href="#23" y="34.736"/><use xlink:href="#24" y="36.907"/><use xlink:href="#25" y="39.078"/><use xlink:href="#26" y="41.249"/><use xlink:href="#27" y="43.42"/><text y="49.432" class="f">$</text><text x="2.004" y="49.432" class="f">provero</text><text x="10.02" y="49.432" class="f">ru</text></svg><svg x="4500"><use xlink:href="#a"/><use xlink:href="#8"/><use xlink:href="#9" y="2.171"/><use xlink:href="#11" y="6.513"/><use xlink:href="#12" y="8.684"/><use xlink:href="#13" y="10.855"/><use xlink:href="#14" y="13.026"/><use xlink:href="#15" y="15.197"/><use xlink:href="#16" y="19.539"/><use xlink:href="#17" y="21.71"/><use xlink:href="#18" y="23.881"/><use xlink:href="#19" y="26.052"/><use xlink:href="#20" y="28.223"/><use xlink:href="#21" y="30.394"/><use xlink:href="#22" y="32.565"/><use xlink:href="#23" y="34.736"/><use xlink:href="#24" y="36.907"/><use xlink:href="#25" y="39.078"/><use xlink:href="#26" y="41.249"/><use xlink:href="#27" y="43.42"/><use xlink:href="#28" y="47.762"/></svg><svg x="4590"><use xlink:href="#a"/><use xlink:href="#8"/><use xlink:href="#9" y="2.171"/><use xlink:href="#11" y="6.513"/><use xlink:href="#12" y="8.684"/><use xlink:href="#13" y="10.855"/><use xlink:href="#14" y="13.026"/><use xlink:href="#15" y="15.197"/><use xlink:href="#16" y="19.539"/><use xlink:href="#17" y="21.71"/><use xlink:href="#18" y="23.881"/><use xlink:href="#19" y="26.052"/><use xlink:href="#20" y="28.223"/><use xlink:href="#21" y="30.394"/><use xlink:href="#22" y="32.565"/><use xlink:href="#23" y="34.736"/><use xlink:href="#24" y="36.907"/><use xlink:href="#25" y="39.078"/><use xlink:href="#26" y="41.249"/><use xlink:href="#27" y="43.42"/><use xlink:href="#28" y="47.762"/></svg><svg x="4680"><use xlink:href="#a"/><use xlink:href="#12"/><use xlink:href="#13" y="2.171"/><use xlink:href="#14" y="4.342"/><use xlink:href="#15" y="6.513"/><use xlink:href="#16" y="10.855"/><use xlink:href="#17" y="13.026"/><use xlink:href="#18" y="15.197"/><use xlink:href="#19" y="17.368"/><use xlink:href="#20" y="19.539"/><use xlink:href="#21" y="21.71"/><use xlink:href="#22" y="23.881"/><use xlink:href="#23" y="26.052"/><use xlink:href="#24" y="28.223"/><use xlink:href="#25" y="30.394"/><use xlink:href="#26" y="32.565"/><use xlink:href="#27" y="34.736"/><use xlink:href="#28" y="39.078"/><use xlink:href="#29" y="41.249"/><use xlink:href="#30" y="43.42"/><use xlink:href="#31" y="45.591"/><use xlink:href="#32" y="47.762"/><use xlink:href="#33" y="49.933"/><use xlink:href="#34" y="52.104"/><use xlink:href="#35" y="54.275"/><use xlink:href="#36" y="56.446"/><use xlink:href="#37" y="58.617"/><use xlink:href="#38" y="60.788"/><use xlink:href="#39" y="62.959"/><use xlink:href="#40" y="65.13"/><use xlink:href="#41" y="67.301"/><use xlink:href="#42" y="69.472"/><use xlink:href="#43" y="71.643"/><use xlink:href="#44" y="73.814"/></svg><svg x="4770"><use xlink:href="#a"/><use xlink:href="#14"/><use xlink:href="#15" y="2.171"/><use xlink:href="#16" y="6.513"/><use xlink:href="#17" y="8.684"/><use xlink:href="#18" y="10.855"/><use xlink:href="#19" y="13.026"/><use xlink:href="#20" y="15.197"/><use xlink:href="#21" y="17.368"/><use xlink:href="#22" y="19.539"/><use xlink:href="#23" y="21.71"/><use xlink:href="#24" y="23.881"/><use xlink:href="#25" y="26.052"/><use xlink:href="#26" y="28.223"/><use xlink:href="#27" y="30.394"/><use xlink:href="#28" y="34.736"/><use xlink:href="#29" y="36.907"/><use xlink:href="#30" y="39.078"/><use xlink:href="#31" y="41.249"/><use xlink:href="#32" y="43.42"/><use xlink:href="#33" y="45.591"/><use xlink:href="#34" y="47.762"/><use xlink:href="#35" y="49.933"/><use xlink:href="#36" y="52.104"/><use xlink:href="#37" y="54.275"/><use xlink:href="#38" y="56.446"/><use xlink:href="#39" y="58.617"/><use xlink:href="#40" y="60.788"/><use xlink:href="#41" y="62.959"/><use xlink:href="#42" y="65.13"/><use xlink:href="#43" y="67.301"/><use xlink:href="#44" y="69.472"/><use xlink:href="#45" y="73.814"/></svg><svg x="4860"><use xlink:href="#a"/><use xlink:href="#16" y="2.171"/><use xlink:href="#17" y="4.342"/><use xlink:href="#18" y="6.513"/><use xlink:href="#19" y="8.684"/><use xlink:href="#20" y="10.855"/><use xlink:href="#21" y="13.026"/><use xlink:href="#22" y="15.197"/><use xlink:href="#23" y="17.368"/><use xlink:href="#24" y="19.539"/><use xlink:href="#25" y="21.71"/><use xlink:href="#26" y="23.881"/><use xlink:href="#27" y="26.052"/><use xlink:href="#28" y="30.394"/><use xlink:href="#29" y="32.565"/><use xlink:href="#30" y="34.736"/><use xlink:href="#31" y="36.907"/><use xlink:href="#32" y="39.078"/><use xlink:href="#33" y="41.249"/><use xlink:href="#34" y="43.42"/><use xlink:href="#35" y="45.591"/><use xlink:href="#36" y="47.762"/><use xlink:href="#37" y="49.933"/><use xlink:href="#38" y="52.104"/><use xlink:href="#39" y="54.275"/><use xlink:href="#40" y="56.446"/><use xlink:href="#41" y="58.617"/><use xlink:href="#42" y="60.788"/><use xlink:href="#43" y="62.959"/><use xlink:href="#44" y="65.13"/><use xlink:href="#45" y="69.472"/><use xlink:href="#46" y="73.814"/></svg><svg x="4950"><use xlink:href="#a"/><use xlink:href="#16"/><use xlink:href="#17" y="2.171"/><use xlink:href="#18" y="4.342"/><use xlink:href="#19" y="6.513"/><use xlink:href="#20" y="8.684"/><use xlink:href="#21" y="10.855"/><use xlink:href="#22" y="13.026"/><use xlink:href="#23" y="15.197"/><use xlink:href="#24" y="17.368"/><use xlink:href="#25" y="19.539"/><use xlink:href="#26" y="21.71"/><use xlink:href="#27" y="23.881"/><use xlink:href="#28" y="28.223"/><use xlink:href="#29" y="30.394"/><use xlink:href="#30" y="32.565"/><use xlink:href="#31" y="34.736"/><use xlink:href="#32" y="36.907"/><use xlink:href="#33" y="39.078"/><use xlink:href="#34" y="41.249"/><use xlink:href="#35" y="43.42"/><use xlink:href="#36" y="45.591"/><use xlink:href="#37" y="47.762"/><use xlink:href="#38" y="49.933"/><use xlink:href="#39" y="52.104"/><use xlink:href="#40" y="54.275"/><use xlink:href="#41" y="56.446"/><use xlink:href="#42" y="58.617"/><use xlink:href="#43" y="60.788"/><use xlink:href="#44" y="62.959"/><use xlink:href="#45" y="67.301"/><use xlink:href="#46" y="71.643"/><use xlink:href="#47" y="73.814"/></svg><svg x="5040"><use xlink:href="#a"/><use xlink:href="#17"/><use xlink:href="#18" y="2.171"/><use xlink:href="#19" y="4.342"/><use xlink:href="#20" y="6.513"/><use xlink:href="#21" y="8.684"/><use xlink:href="#22" y="10.855"/><use xlink:href="#23" y="13.026"/><use xlink:href="#24" y="15.197"/><use xlink:href="#25" y="17.368"/><use xlink:href="#26" y="19.539"/><use xlink:href="#27" y="21.71"/><use xlink:href="#28" y="26.052"/><use xlink:href="#29" y="28.223"/><use xlink:href="#30" y="30.394"/><use xlink:href="#31" y="32.565"/><use xlink:href="#32" y="34.736"/><use xlink:href="#33" y="36.907"/><use xlink:href="#34" y="39.078"/><use xlink:href="#35" y="41.249"/><use xlink:href="#36" y="43.42"/><use xlink:href="#37" y="45.591"/><use xlink:href="#38" y="47.762"/><use xlink:href="#39" y="49.933"/><use xlink:href="#40" y="52.104"/><use xlink:href="#41" y="54.275"/><use xlink:href="#42" y="56.446"/><use xlink:href="#43" y="58.617"/><use xlink:href="#44" y="60.788"/><use xlink:href="#45" y="65.13"/><use xlink:href="#46" y="69.472"/><use xlink:href="#47" y="71.643"/></svg></svg></g></g></svg></svg>